<?xml version="1.0" encoding="UTF-8"?><svg id="Boceto" xmlns="http://www.w3.org/2000/svg" viewBox="0 0 250 250"><defs><style>.cls-1{fill:#fff;}</style></defs><path class="cls-1" d="M224.25,203.54c-23.12,28.33-58.49,46.46-98.13,46.46C56.46,250,0,194.03,0,125S56.46,0,126.12,0c7.99,0,15.82,.74,23.4,2.16l6.07,18.3v.02L71.82,177.19h-17.4L141.45,17.56c-4.7-.66-9.49-.98-14.39-.98-58.97,0-106.77,48.2-106.77,107.67s47.8,107.68,106.77,107.68c27.86,0,53.21-10.76,72.22-28.38h24.97Z"/><polygon class="cls-1" points="230.7 150.55 230.53 177.19 210.35 177.19 177.09 115.07 144.11 177.19 127.77 177.19 169.43 100.78 156.09 75.85 101.93 177.19 84.52 177.19 163.05 33.17 171.02 47.93 230.63 150.43 230.7 150.55"/><path class="cls-1" d="M250,101.31h-18.61c-7.42-34.5-31.23-62.83-62.79-76.28l8.34-14.47c37.34,16.3,65.18,50,73.07,90.75Z"/></svg>